<svg width="88" height="82" viewBox="0 0 88 82" fill="none" xmlns="http://www.w3.org/2000/svg">
<path d="M27.8133 59.1588L32.1881 53.2274L18.1047 41.0038L32.1881 28.7802L27.8133 22.8488L10.3141 38.0381C9.90406 38.3938 9.57305 38.8451 9.34558 39.3585C9.11811 39.8718 9 40.4342 9 41.0038C9 41.5734 9.11811 42.1357 9.34558 42.6491C9.57305 43.1625 9.90406 43.6138 10.3141 43.9695L27.8133 59.1588ZM60.1867 22.8488L55.8119 28.7802L69.8953 41.0038L55.8119 53.2274L60.1867 59.1588L77.6859 43.9695C78.0959 43.6138 78.4269 43.1625 78.6544 42.6491C78.8819 42.1357 79 41.5734 79 41.0038C79 40.4342 78.8819 39.8718 78.6544 39.3585C78.4269 38.8451 78.0959 38.3938 77.6859 38.0381L60.1867 22.8488ZM54.4155 7.64804L40.4162 76L33.581 74.352L47.5803 6L54.4155 7.64804Z" fill="#A86F49"/>
</svg>
