<svg  viewBox="0 0 527 150" fill="none" xmlns="http://www.w3.org/2000/svg">
<g clip-path="url(#clip0)">
<path d="M0 82.5754C0 73.2755 1.76042 64.5392 5.28121 56.3664C8.802 48.1938 13.5903 41.078 19.6462 35.0189C25.702 28.819 32.814 23.9576 40.9824 20.435C49.2915 16.9122 58.0937 15.1508 67.3887 15.1508C77.9511 15.1508 87.739 17.4758 96.7523 22.1258C105.766 26.6348 113.371 32.6939 119.567 40.3029C121.116 42.1348 121.891 44.4599 121.891 47.278C121.891 51.2234 120.412 54.6756 117.455 57.6346C114.497 60.4529 111.047 61.8621 107.104 61.8621C103.442 61.8621 100.625 60.8052 98.6535 58.6915C94.9919 54.0415 90.4148 50.3075 84.9222 47.4894C79.5706 44.6712 73.7261 43.2622 67.3887 43.2622C61.8962 43.2622 56.7556 44.3189 51.9673 46.4325C47.179 48.4052 42.9542 51.2234 39.2925 54.8871C35.7716 58.4098 32.9549 62.5665 30.8425 67.3574C28.8709 72.0073 27.885 77.0799 27.885 82.5754C27.885 88.0708 28.8709 93.214 30.8425 98.0049C32.9549 102.796 35.7716 107.023 39.2925 110.687C42.9542 114.209 47.179 117.027 51.9673 119.141C56.7556 121.114 61.8962 122.1 67.3887 122.1C72.7403 122.1 77.6694 121.184 82.1761 119.352C86.8235 117.38 90.9782 114.702 94.6399 111.321C96.3298 109.207 97.1044 106.107 96.9635 102.021C92.8794 102.021 89.4289 100.682 86.6124 98.0049C83.9365 95.1867 82.5986 91.7344 82.5986 87.6481C82.5986 83.8436 83.9365 80.6028 86.6124 77.9254C89.4289 75.2482 92.8794 73.9096 96.9635 73.9096H110.906C114.99 73.9096 118.37 75.2482 121.046 77.9254C123.722 80.6028 125.06 83.8436 125.06 87.6481V102.021C125.06 110.053 124.074 116.041 122.102 119.987C120.271 123.932 118.3 126.962 116.187 129.075C109.991 135.698 102.667 140.841 94.2172 144.505C85.9081 148.168 76.9653 150 67.3887 150C58.0937 150 49.2915 148.239 40.9824 144.716C32.814 141.193 25.702 136.402 19.6462 130.343C13.5903 124.143 8.802 116.957 5.28121 108.784C1.76042 100.612 0 91.8753 0 82.5754Z" fill="#444341"/>
<path d="M367.673 116.822C374.032 116.822 379.468 114.389 383.981 109.522C388.494 104.656 390.75 98.7949 390.75 91.9381C390.75 85.0813 388.494 79.2197 383.981 74.3536C379.468 69.4874 374.032 67.0544 367.673 67.0544C361.314 67.0544 355.878 69.4874 351.365 74.3536C346.852 79.2197 344.596 85.0813 344.596 91.9381C344.596 98.7949 346.852 104.656 351.365 109.522C355.878 114.389 361.314 116.822 367.673 116.822ZM393.597 143.033C385.853 147.677 377.212 150 367.673 150C352.801 150 340.109 144.332 329.596 132.996C319.083 121.66 313.826 107.974 313.826 91.9381C313.826 75.902 319.083 62.2159 329.596 50.8799C340.109 39.544 352.801 33.8762 367.673 33.8762C377.212 33.8762 385.853 36.1987 393.597 40.8436C394.058 40.1245 394.622 39.4056 395.289 38.687C398.263 35.4798 401.879 33.8762 406.135 33.8762C410.392 33.8762 414.007 35.5075 416.981 38.77C420.007 41.9772 421.52 45.8757 421.52 50.4654V133.411C421.52 138.001 420.007 141.927 416.981 145.189C414.007 148.396 410.392 150 406.135 150C401.879 150 398.263 148.369 395.289 145.106C394.622 144.443 394.058 143.752 393.597 143.033Z" fill="#444341"/>
<path d="M460.845 38.6042C466.897 35.4522 473.563 33.8762 480.846 33.8762C493.615 33.8762 504.487 38.7423 513.462 48.4746C522.487 58.1516 527 69.8746 527 83.6435V133.411C527 138.001 525.487 141.927 522.462 145.189C519.487 148.396 515.872 150 511.615 150C507.359 150 503.718 148.396 500.692 145.189C497.718 141.927 496.23 138.001 496.23 133.411V83.6435C496.23 79.0538 494.718 75.1554 491.692 71.9482C488.718 68.6857 485.102 67.0544 480.846 67.0544C476.589 67.0544 472.948 68.6857 469.922 71.9482C466.948 75.1554 465.461 79.0538 465.461 83.6435V133.411C465.461 138.001 463.948 141.927 460.922 145.189C457.948 148.396 454.333 150 450.076 150C445.82 150 442.178 148.396 439.153 145.189C436.178 141.927 434.691 138.001 434.691 133.411V50.4654C434.691 45.8757 436.178 41.9772 439.153 38.77C442.178 35.5075 445.82 33.8762 450.076 33.8762C454.281 33.8762 457.871 35.4522 460.845 38.6042Z" fill="#444341"/>
<path d="M212.466 13.3057V140.876C212.466 143.088 211.287 145.189 208.928 147.18C206.671 149.06 203.492 150 199.389 150C195.594 150 192.415 149.171 189.851 147.512C187.287 145.853 185.953 143.364 185.851 140.047C185.03 100.454 184.62 63.5154 184.62 29.2312V13.3057C184.62 9.76662 186.004 7.00176 188.774 5.01111C191.543 3.02035 194.773 2.02505 198.466 2.02505C202.261 2.02505 205.543 3.02035 208.312 5.01111C211.082 7.00176 212.466 9.76662 212.466 13.3057H212.466Z" fill="#444341"/>
<path d="M253.484 13.3057V140.876C253.484 143.088 252.305 145.189 249.946 147.18C247.689 149.06 244.51 150 240.407 150C236.612 150 233.433 149.171 230.868 147.512C228.304 145.853 226.971 143.364 226.868 140.047C226.048 100.454 225.637 63.5154 225.637 29.2312V13.3057C225.637 9.76662 227.022 7.00176 229.791 5.01111C232.56 3.02035 235.791 2.02505 239.484 2.02505C243.279 2.02505 246.561 3.02035 249.33 5.01111C252.099 7.00176 253.484 9.76662 253.484 13.3057H253.484Z" fill="#444341"/>
<path d="M269.655 97.5783V58.9255C269.655 54.5017 270.937 50.7969 273.501 47.8108C276.168 44.8248 279.347 43.3317 283.04 43.3317C286.732 43.3317 289.963 44.8248 292.732 47.8108C295.604 50.6863 297.142 54.0041 297.347 57.7643C297.553 66.6119 297.655 79.9385 297.655 97.7442V137.06C297.655 142.148 296.527 145.576 294.27 147.346C292.014 149.004 287.655 149.889 281.193 150H281.04C273.45 150 269.655 145.963 269.655 137.89V129.595C269.758 125.946 269.809 123.181 269.809 121.301C269.809 118.646 269.758 114.72 269.655 109.522V97.5783H269.655Z" fill="#935F46"/>
<path d="M296.04 29.8604C292.963 32.9571 288.912 34.5054 283.886 34.5054C278.86 34.5054 274.706 32.9017 271.424 29.6945C268.245 26.3767 266.655 22.1741 266.655 17.0868C266.655 12.9948 268.347 9.12403 271.732 5.47443C275.116 1.82482 278.758 0 282.655 0H283.578C288.194 0.331775 292.194 1.93541 295.578 4.81082C298.963 7.68627 300.655 11.8336 300.655 17.2527C300.655 22.4506 299.117 26.6532 296.04 29.8604Z" fill="#935F46"/>
<path d="M140.448 97.5781V58.9255C140.448 54.5017 141.729 50.7968 144.294 47.8108C146.961 44.8247 150.14 43.3319 153.833 43.3319C157.525 43.3319 160.756 44.8245 163.525 47.8108C166.397 50.6862 167.935 54.0041 168.141 57.7642C168.346 66.6119 168.449 79.9384 168.449 97.7441V137.06C168.449 142.148 167.32 145.576 165.064 147.346C162.808 149.004 158.449 149.889 151.987 150H151.833C144.244 150 140.449 145.963 140.449 137.89V129.595C140.553 125.946 140.602 123.181 140.602 121.301C140.602 118.646 140.557 114.72 140.449 109.522V97.5781H140.448Z" fill="#444341"/>
<path d="M166.833 29.8605C163.756 32.9571 159.705 34.5053 154.679 34.5053C149.654 34.5053 145.5 32.9018 142.218 29.6945C139.038 26.3767 137.448 22.1742 137.448 17.0868C137.448 12.9949 139.141 9.12395 142.525 5.47443C145.91 1.82475 149.551 0 153.449 0H154.371C158.987 0.332256 162.987 1.93544 166.372 4.81082C169.756 7.68636 171.449 11.8336 171.449 17.2527C171.449 22.4507 169.91 26.6532 166.833 29.8605H166.833Z" fill="#444341"/>
</g>
<defs>
<clipPath id="clip0">
<rect width="527" height="150" fill="white"/>
</clipPath>
</defs>
</svg>
