<svg width="70" height="66" viewBox="0 0 70 66" fill="none" xmlns="http://www.w3.org/2000/svg">
<path d="M40.25 4.125H29.75C27.8173 4.125 26.25 5.97223 26.25 8.25V20.625C26.25 22.9028 27.8173 24.75 29.75 24.75H40.25C42.1827 24.75 43.75 22.9028 43.75 20.625V8.25C43.75 5.97223 42.1827 4.125 40.25 4.125ZM22.75 11.3438H13.4805C12.4414 8.32219 9.93563 6.1875 7 6.1875C3.13469 6.1875 0 9.88066 0 14.4375C0 18.9943 3.13469 22.6875 7 22.6875C9.93563 22.6875 12.4414 20.5528 13.4805 17.5312H22.2009C16.1448 21.7233 11.7163 28.7873 10.22 37.125H15.6231C16.8591 31.7612 19.6448 27.1721 23.3931 24.0333C22.9884 22.9917 22.75 21.8432 22.75 20.625V11.3438ZM17.5 41.25H7C5.06734 41.25 3.5 43.0972 3.5 45.375V57.75C3.5 60.0278 5.06734 61.875 7 61.875H17.5C19.4327 61.875 21 60.0278 21 57.75V45.375C21 43.0972 19.4327 41.25 17.5 41.25ZM63 6.1875C60.0644 6.1875 57.5586 8.32219 56.5195 11.3438H47.25V20.625C47.25 21.8432 47.0105 22.9917 46.6069 24.0333C50.3552 27.1721 53.1409 31.7612 54.3769 37.125H59.78C58.2837 28.7873 53.8552 21.7233 47.7991 17.5312H56.5195C57.5586 20.5528 60.0644 22.6875 63 22.6875C66.8653 22.6875 70 18.9943 70 14.4375C70 9.88066 66.8653 6.1875 63 6.1875ZM63 41.25H52.5C50.5673 41.25 49 43.0972 49 45.375V57.75C49 60.0278 50.5673 61.875 52.5 61.875H63C64.9327 61.875 66.5 60.0278 66.5 57.75V45.375C66.5 43.0972 64.9327 41.25 63 41.25Z" fill="#A86F49"/>
</svg>
