<svg     viewBox="0 0 1024 768" fill="none" xmlns="http://www.w3.org/2000/svg">
<path fill-rule="evenodd" clip-rule="evenodd" d="M218 458.457L220.613 491.232L270.268 503.03L308.163 520.073L338.217 546.293L352.591 534.494L370.885 493.854L391.792 489.921L467.581 497.787L493.716 505.652L484.569 550.226L475.422 583L627 573.823L621.773 497.787L590.412 428.305L466.275 368L373.498 379.799L308.163 451.902L279.415 467.634L228.454 465.012" fill="#D0B5A4"/>
<path fill-rule="evenodd" clip-rule="evenodd" d="M145.695 523.735C145.695 529.083 149.006 528.744 153.016 528.334C154.383 528.194 155.832 528.045 157.259 528.112C158.129 528.152 159.597 528.409 161.338 528.714L161.339 528.715C166.434 529.608 173.871 530.912 175.526 528.391C177.109 525.979 174.903 525.65 172.653 525.315C171.136 525.09 169.6 524.861 169.193 523.988C168.112 521.666 170.232 520.055 172.293 518.488C174.121 517.098 175.904 515.743 175.366 513.958C174.824 512.158 172.403 513.18 169.789 514.284C166.888 515.509 163.749 516.834 162.677 514.514C161.655 512.303 164.006 510.254 166.14 508.393C167.945 506.819 169.596 505.38 168.921 504.092C167.67 501.709 154.99 507.741 153.371 508.778C148.79 511.71 145.487 518.301 145.695 523.735ZM711.976 396.62C713.921 398.718 715.403 401.19 716.873 403.642C718.345 406.097 719.805 408.532 721.707 410.554C723.344 412.294 725.223 412.97 727.169 413.669V413.67C728.051 413.986 728.946 414.308 729.838 414.736C731.561 415.563 733.348 416.46 735.179 417.378C742.228 420.915 749.938 424.784 757.267 426.306C751.861 419.981 748.431 414.258 745.22 406.572C744.893 405.788 744.542 404.991 744.187 404.186C743.298 402.169 742.388 400.103 741.774 398.063C741.126 395.915 741.002 393.701 740.878 391.498C740.767 389.509 740.656 387.529 740.16 385.614C739.881 384.534 739.766 383.7 739.682 383.082L739.681 383.079V383.078C739.581 382.347 739.523 381.92 739.281 381.746C738.941 381.5 738.238 381.757 736.543 382.376L736.407 382.425L736.201 382.501L735.979 382.581C734.509 383.115 733.145 384.252 731.816 385.36C730.983 386.055 730.163 386.738 729.339 387.255C726.793 388.85 724.141 390.111 721.498 391.367C718.235 392.918 714.987 394.462 711.976 396.62ZM959.432 283.062C959.619 285.048 986.378 275.498 989.019 273.746C993.958 270.469 999.746 255.389 994.491 250.919C989.76 246.896 979.364 251.798 971.839 255.347C969.275 256.556 967.044 257.608 965.485 258.096C955.152 261.325 943.249 263.143 932.481 262.043C927.599 261.543 922.791 261.128 917.862 260.823C917.033 260.772 916.075 260.642 915.052 260.502C911.523 260.022 907.219 259.435 904.758 261.64C901.755 264.328 902.118 269.679 903.647 273.021C904.175 274.174 904.812 274.811 905.427 275.426C905.965 275.964 906.486 276.485 906.903 277.319C907.015 277.542 906.955 277.828 906.883 278.173C906.769 278.72 906.624 279.416 907.079 280.246C909.121 283.976 916.07 290.209 919.813 292.108C923.4 293.929 924.708 292.808 926.7 291.1C927.375 290.522 928.129 289.876 929.076 289.255C935.591 284.982 945.768 284.177 954.316 283.501C956.109 283.359 957.831 283.223 959.432 283.062ZM897.479 284.217C889.733 293.674 880.623 300.249 871.069 307.143L871.066 307.145C869.179 308.508 867.273 309.882 865.358 311.295C862.768 313.204 860.209 315.153 857.652 317.1L857.651 317.101H857.65L857.649 317.102L857.648 317.103L857.646 317.104V317.105C850.052 322.886 842.475 328.655 834.148 333.363C833.25 333.871 832.194 334.321 831.124 334.777C828.296 335.981 825.362 337.231 824.933 339.722C824.561 341.889 827.135 346.504 829.288 350.365C830.345 352.26 831.3 353.973 831.756 355.126C835.86 365.488 839.021 376.088 842.204 386.763C842.648 388.253 843.093 389.743 843.54 391.235L844.314 390.029C854.958 373.434 865.743 356.62 878.783 341.627C890.57 328.074 902.661 313.893 912.965 299.289C906.728 295.49 901.561 290.251 897.479 284.217ZM807.109 159.912C796.19 159.474 792.861 168.387 789.674 176.921C788.422 180.273 787.192 183.567 785.533 186.212C782.281 191.395 777.955 196.96 773.151 200.838C769.511 203.775 765.144 205.507 760.791 207.234C758.654 208.081 756.521 208.928 754.48 209.914C748.86 212.627 743.866 215.346 740.36 220.581C740.026 221.079 739.653 221.606 739.265 222.155C736.831 225.593 733.765 229.926 735.513 233.951C736.727 236.744 740.029 239.05 743.271 241.314C745.569 242.918 747.837 244.501 749.309 246.222C753.514 251.136 754.107 250.994 758.85 249.853C759.621 249.667 760.502 249.456 761.526 249.235C765.183 248.446 768.657 248.2 772.395 248.331C772.849 248.346 773.626 248.491 774.528 248.658C776.632 249.049 779.414 249.566 780.352 248.87C781.487 248.028 781.134 245.43 780.827 243.172C780.67 242.014 780.524 240.945 780.598 240.247C780.93 237.116 782.042 233.885 783.097 230.933C786.669 220.923 792.992 213.825 799.578 206.43L799.584 206.424L799.59 206.417L799.597 206.409L799.603 206.402C800.721 205.148 801.846 203.884 802.966 202.597C807.06 197.892 811.9 193.879 816.737 189.87C821.702 185.754 826.663 181.642 830.804 176.789C835.318 171.5 833.263 167.761 827.069 165.285C825.322 164.587 823.407 164.278 821.498 163.97C819.967 163.723 818.44 163.476 817.003 163.03C815.869 162.678 814.778 162.211 813.69 161.745C811.574 160.838 809.473 159.939 807.109 159.912ZM215.785 533.344C217.914 533.344 220.029 532.475 222.118 531.616C224.373 530.688 226.598 529.773 228.781 529.976C229.835 530.075 231.02 531.073 232.141 532.018C232.863 532.626 233.559 533.212 234.176 533.522C236.414 534.642 238.83 535.2 241.297 535.506C242.925 535.707 244.357 535.709 245.683 535.71C248.735 535.713 251.219 535.715 254.206 538.155C257.333 540.709 260.561 543.929 263.563 546.923C264.253 547.612 264.932 548.288 265.594 548.942C271.085 554.363 275.87 560.844 280.563 567.199C282.334 569.597 284.092 571.977 285.869 574.275C293.878 584.634 302.196 592.857 312.851 600.616C321.269 606.744 329.797 610.776 339.277 615.258L340.142 615.668C349.782 620.229 361.907 625.518 372.844 625.769C381.568 625.97 392.473 623.171 400.412 619.447C404.22 617.662 406.029 617.35 409.137 616.815C409.799 616.701 410.519 616.577 411.329 616.427C418.248 615.143 426.219 611.514 432.734 608.548L433.441 608.226C454.288 598.741 467.499 578.068 476.9 557.833C482.25 546.317 485.592 535.064 487.822 522.604C487.938 521.956 488.053 521.354 488.16 520.795C489.169 515.501 489.463 513.955 483.483 511.416C478.193 509.171 472.565 507.605 466.999 506.056C465.537 505.649 464.079 505.243 462.632 504.826C442.24 498.954 418.997 497.659 397.94 498.556C396.685 498.609 395.426 498.696 394.167 498.783H394.165H394.164H394.162H394.161H394.159C392.098 498.926 390.034 499.068 387.976 499.066C387.302 499.065 386.329 498.942 385.264 498.809C383.143 498.542 380.659 498.23 379.448 498.741C376.579 499.956 374.142 505.456 372.407 509.371L372.406 509.372L372.405 509.375L372.404 509.377C371.942 510.419 371.53 511.349 371.173 512.055C368.263 517.813 365.68 523.719 363.098 529.623V529.624C360.797 534.884 358.498 540.142 355.968 545.292C353.176 550.978 349.006 554.717 342.416 554.809C335.881 554.899 332.409 551.203 328.447 546.986C327.934 546.439 327.411 545.883 326.873 545.326C317.53 535.643 304.954 527.32 293.356 520.585C280.829 513.313 265.892 506.265 251.63 503.697C250.154 503.432 248.382 503.029 246.42 502.584C235.755 500.162 219.473 496.464 214.593 506.527C214.692 506.513 214.802 506.498 214.92 506.482L214.945 506.479H214.946C218.349 506.016 228.834 504.589 229.295 509.403C229.461 511.137 226.584 512.206 223.274 513.435C219.427 514.864 214.996 516.51 214.076 519.669C214.791 519.613 215.854 519.432 217.104 519.219C222.189 518.353 230.389 516.957 231.095 521.282C231.47 523.575 228.193 524.957 225.927 525.913C225.363 526.151 224.861 526.362 224.494 526.555C220.849 528.472 218.654 530.463 215.785 533.344ZM611.693 362.18C608.856 360.181 603.787 359.893 599.444 359.646C597.838 359.555 596.331 359.469 595.072 359.305L595.039 359.301H595.038V359.3C589.098 358.523 583.322 357.767 577.323 358.095C575.153 358.214 572.948 358.285 570.728 358.357C564.35 358.564 557.852 358.775 551.735 360.121C541.402 362.392 531.617 365.88 522.279 370.774C522.098 370.869 521.913 370.965 521.725 371.063L521.716 371.067C518.66 372.651 514.778 374.663 514.806 378.948C514.828 382.42 515.954 382.613 518.604 383.069C519.22 383.175 519.918 383.295 520.704 383.474C529.435 385.461 537.66 390.404 545.59 395.17C547.854 396.531 550.094 397.877 552.314 399.136C562.947 405.16 573.537 411.93 583.403 419.15C602.317 432.991 613.112 452.904 621.512 474.551C625.857 485.746 629.007 498.82 630.314 510.752C631.104 517.951 631.108 525.171 631.112 532.388V532.39C631.116 538.482 631.119 544.57 631.595 550.64C631.627 551.057 631.663 551.639 631.706 552.34V552.341C631.985 556.914 632.573 566.539 634.623 568.228C635.875 569.26 640.588 568.284 644.176 567.542C645.729 567.221 647.07 566.943 647.829 566.891C653.516 566.5 659.222 566.341 664.894 566.184H664.895C669.686 566.051 674.453 565.919 679.164 565.647C689.969 565.024 700.909 565.143 711.874 565.261C722.981 565.381 734.114 565.502 745.159 564.853C756.2 564.203 766.888 562.65 777.715 560.422C780.758 559.796 784.028 559.337 787.362 558.868H787.363C795.056 557.788 803.095 556.659 809.498 553.322C827.169 544.115 837.942 521.918 838.717 503.123C839.558 482.75 838.166 460.58 833.888 440.284C833.355 437.753 832.838 435.252 832.325 432.767C830.681 424.803 829.072 417.012 827.06 408.996C824.44 398.554 821.534 388.152 818.648 377.821L818.623 377.733C818.263 376.444 817.903 375.157 817.545 373.871C815.261 365.687 812.457 357.733 809.656 349.786V349.785V349.784H809.655V349.783V349.782C805.605 338.292 801.561 326.817 799.101 314.69C796.811 303.405 793.566 291.606 790.18 280.591C788.931 276.532 786.47 268.82 783.565 265.736C781.256 263.285 779.226 263.752 776.408 264.401C775.501 264.61 774.513 264.837 773.408 264.992C771.499 265.261 769.174 265.227 766.762 265.193C759.561 265.091 751.584 264.978 751.589 272.834C751.591 276.198 752.244 279.659 752.895 283.103V283.104V283.105V283.106L752.896 283.107V283.108V283.11V283.111V283.112C753.358 285.554 753.818 287.988 754.042 290.375C754.312 293.243 754.389 296.119 754.466 298.994V298.995V298.996V298.997V298.998V298.999V299V299.001V299.002C754.571 302.932 754.676 306.862 755.273 310.768C755.625 313.068 756.011 315.331 756.395 317.576L756.396 317.584C757.837 326.024 759.233 334.2 758.583 343.086C758.248 347.658 757.682 352.162 757.117 356.659C756.17 364.194 755.226 371.707 755.375 379.477C755.402 380.899 755.417 382.315 755.431 383.724C755.537 394.018 755.64 403.973 760.574 413.502C761.537 415.362 762.425 417.355 763.316 419.352V419.353C764.616 422.267 765.921 425.191 767.466 427.731C770.519 432.747 773.163 434.216 778.619 436.236C779.416 436.531 780.486 436.847 781.686 437.202C785.625 438.366 790.965 439.944 792.661 442.558C795.858 447.479 791.59 449.47 787.387 449.302C776.759 448.88 765.898 444.92 755.63 441.176L755.626 441.175L755.623 441.174L755.621 441.173L755.615 441.171L755.595 441.164C753.335 440.34 751.104 439.526 748.91 438.764C745.402 437.543 741.975 436.13 738.552 434.718L738.551 434.717C736.387 433.824 734.225 432.932 732.046 432.091C730.79 431.606 729.6 431.209 728.447 430.826C725.469 429.835 722.741 428.927 719.794 426.791C714.645 423.061 710.103 418.594 705.56 414.126C701.31 409.946 697.059 405.764 692.309 402.185C673.716 388.173 651.426 379.808 628.074 377.326C622.065 376.687 617.414 376.974 611.396 377.484C610.508 377.559 609.621 377.621 608.737 377.683C606.307 377.852 603.89 378.02 601.474 378.468C600.808 378.592 599.498 379.089 598.013 379.653C595.254 380.7 591.89 381.977 590.923 381.517C581.263 376.925 608.617 362.945 611.693 362.18ZM217.974 459.149C217.977 459.102 217.98 459.055 217.984 459.009C218.002 459.073 218.02 459.136 218.037 459.199L217.974 459.149ZM218.363 460.292C218.252 459.939 218.144 459.574 218.037 459.199C220.007 460.764 221.791 462.475 223.568 464.181H223.569L223.57 464.183C225.95 466.466 228.318 468.739 231.106 470.633C236.905 474.572 243.801 476.656 250.673 478.13C263.313 480.842 280.589 480.164 292.641 474.834C303.783 469.906 310.825 461.015 317.023 450.693C317.948 449.151 318.492 447.473 319.016 445.854C320.144 442.37 321.183 439.164 325.747 438.195C328.854 437.535 332.568 438.761 336.336 440.005C339.396 441.014 342.491 442.036 345.325 442.069C351.458 442.139 359.412 439.343 364.422 435.567C366.11 434.294 367.31 431.8 368.452 429.427V429.426C369.627 426.983 370.741 424.667 372.263 423.942C373.461 423.372 375.43 424.216 377.134 424.947C377.938 425.291 378.683 425.611 379.26 425.744C382.416 426.476 385.557 426.705 388.724 425.874C392.826 424.797 399.49 421.837 402.689 419.036C404.405 417.534 405.415 414.513 406.388 411.605C407.385 408.626 408.341 405.767 409.975 404.785C411.343 403.964 413.699 404.594 416.096 405.234C417.927 405.723 419.782 406.218 421.239 406.079C432.078 405.044 439.469 398.839 443.635 388.895C443.947 388.149 444.279 386.534 444.66 384.679V384.678C445.418 380.988 446.371 376.35 447.755 375.726C448.572 375.359 452.904 376.935 456.045 378.078C457.44 378.585 458.6 379.007 459.114 379.136C469.662 381.781 482.886 387.414 492.029 393.126C499.037 397.505 507.052 400.399 515.014 403.274L515.015 403.275H515.016L515.017 403.276C519.537 404.907 524.04 406.533 528.332 408.421C538.21 412.765 547.844 417.98 556.961 423.533C567.688 430.067 577.413 436.683 586.157 445.795L586.523 446.176L587.004 446.677C595.324 455.338 605.033 465.445 608.641 477.031C609.993 481.371 610.452 486.035 610.907 490.665V490.666V490.667V490.668C611.161 493.241 611.413 495.804 611.817 498.294C612.542 502.768 613.675 507.104 614.809 511.449C615.443 513.875 616.077 516.304 616.642 518.761C619.629 531.767 620.82 547.16 620.731 560.536C620.724 561.656 620.783 562.699 620.838 563.66C621.055 567.447 621.199 569.962 616.861 570.948C613.363 571.743 608.585 570.754 604.158 569.837C601.863 569.362 599.662 568.906 597.783 568.729C593.04 568.279 588.42 568.408 583.775 568.538H583.773H583.771H583.77H583.768H583.766C581.315 568.607 578.856 568.676 576.369 568.66C574.295 568.646 572.18 568.521 570.05 568.395C565.473 568.124 560.825 567.849 556.364 568.671C548.409 570.136 540.153 570.464 531.846 570.794C528.706 570.918 525.559 571.043 522.419 571.23C518.93 571.437 515.438 571.458 511.947 571.478C507.689 571.503 503.431 571.527 499.18 571.892C498.651 571.937 497.415 572.16 495.833 572.446C490.911 573.334 482.646 574.827 481.945 573.438C481.146 571.856 484.863 565.167 487.707 560.047C488.984 557.75 490.084 555.769 490.524 554.706C493.216 548.191 495.615 541.518 496.924 534.57C499.137 522.808 499.922 511.435 500.019 499.604C500.129 485.923 497.754 473.032 494.062 459.947C493.972 459.629 493.857 459.13 493.713 458.507C492.701 454.124 490.27 443.597 485.314 446.776C482.325 448.694 484.041 457.061 485.003 461.75C485.232 462.864 485.418 463.77 485.488 464.333C485.825 467.026 486.285 469.698 486.744 472.367C487.453 476.484 488.161 480.597 488.416 484.777C488.464 485.555 488.564 486.476 488.672 487.464C488.985 490.34 489.361 493.786 488.671 495.947C488.431 496.701 488.322 497.245 488.245 497.633C488.16 498.061 488.113 498.298 487.969 498.416C487.788 498.564 487.456 498.526 486.708 498.441C486.343 498.399 485.879 498.346 485.286 498.298C482.229 498.051 478.715 495.994 475.364 494.033C473.17 492.748 471.047 491.505 469.168 490.839C463.126 488.694 457.159 487.409 450.892 486.272C437.361 483.819 423.801 482.921 410.035 482.964C406.72 482.975 403.248 483.562 399.784 484.148H399.783C395.744 484.83 391.718 485.511 387.968 485.274C387.695 485.257 387.427 485.239 387.162 485.222C382.477 484.922 379.001 484.699 373.634 485.7C374.495 480.99 376.591 476.496 378.689 471.998C381.074 466.885 383.462 461.766 384.041 456.317C385.515 442.445 373.976 451.829 370.12 457.34C364.564 465.281 360.132 473.653 358.728 483.472C358.463 485.327 358.697 487.197 358.927 489.038C359.18 491.054 359.428 493.036 359.012 494.928C358.497 497.264 356.813 499.842 355.201 502.31C354.21 503.827 353.246 505.303 352.597 506.656C348.617 514.946 345.846 523.633 343.234 532.427C343.029 533.118 342.867 533.764 342.719 534.352V534.353C341.951 537.417 341.574 538.922 337.535 537.082C335.667 536.231 334.201 534.576 332.758 532.947C331.922 532.004 331.095 531.069 330.201 530.304C318.337 520.141 305.821 510.71 292.117 502.917C277.8 494.775 263.843 490.976 247.614 489.265C246.713 489.17 245.668 489.084 244.529 488.989H244.527H244.526C238.01 488.449 228.438 487.656 225.355 483.619C222.636 480.061 221.335 473.694 220.157 467.927C219.58 465.105 219.033 462.427 218.363 460.292ZM227.592 456.367C223.342 454.319 218.507 451.99 217.984 459.009C217.418 456.991 216.904 454.695 216.366 452.298C214.879 445.662 213.22 438.26 209.836 433.89C208.888 432.667 207.725 432.293 206.65 431.947C205.804 431.675 205.012 431.42 204.422 430.782C203.023 429.267 202.846 426.036 202.705 423.474V423.473V423.472C202.655 422.552 202.609 421.719 202.513 421.081C202.285 419.562 202.046 418.068 201.809 416.589L201.808 416.584V416.583V416.581C200.632 409.237 199.516 402.276 200.161 394.568C200.181 394.329 200.196 393.914 200.216 393.388C200.31 390.925 200.496 386.03 201.641 385.34C202.752 384.671 205.896 385.559 208.494 386.292V386.293C209.825 386.668 211.013 387.004 211.711 387.069C215.867 387.456 220.052 387.991 224.246 388.526H224.247C236.13 390.043 248.088 391.57 259.676 389.79C273.748 387.63 287.246 383.063 300.22 377.219C300.499 378.761 301.225 379.999 302.396 380.932C302.805 380.331 303.164 379.763 303.502 379.23C305.283 376.419 306.455 374.567 311.068 373.844C314.569 373.295 319.412 374.383 322.315 376.569C333.55 385.022 320.74 393.356 313.353 397.148C322.483 407.191 325.36 428.453 314.85 438.715C313.351 440.179 311.847 441.52 310.357 442.85L310.355 442.851C307.698 445.222 305.081 447.556 302.605 450.48C298.558 455.259 295.322 458.971 289.459 460.686C288.764 460.889 288.048 461.102 287.316 461.319C281.532 463.035 274.737 465.051 269.094 465.345C264.947 465.561 260.498 464.701 256.21 463.872H256.209C254.24 463.491 252.305 463.117 250.448 462.856C243.111 461.828 236.003 460.193 229.221 457.135C228.695 456.898 228.149 456.635 227.592 456.367ZM210.021 542.866C210.447 543.388 211.251 544.273 212.286 545.415C218.481 552.24 232.996 568.232 225.062 570.557C221.665 571.553 216.281 565.977 212.48 562.04C211.278 560.794 210.234 559.713 209.46 559.055C204.472 554.812 199.247 552.024 193.164 549.683C178.318 543.971 164.886 538.837 148.719 541.209C146.402 541.549 143.918 542.118 141.379 542.7C136.321 543.859 131.04 545.069 126.405 544.619C119.398 543.939 121.213 537.689 125.595 534.2C127.08 533.018 128.787 532.41 130.427 531.826C133.112 530.869 135.618 529.976 136.686 526.73C137.444 524.422 137.515 521.848 137.587 519.239C137.68 515.878 137.775 512.459 139.342 509.479C141.72 504.958 147.325 500.267 151.652 497.648C152.28 497.267 153.058 496.925 153.853 496.576C155.444 495.877 157.101 495.149 157.758 494.027C158.367 492.988 156.626 488.24 155.533 485.259V485.258C155.175 484.284 154.887 483.498 154.773 483.093C154.185 480.996 153.582 478.899 152.98 476.8C151.266 470.834 149.549 464.854 148.132 458.83C146.356 451.282 145.894 447.371 153.844 444.632C160.377 442.38 167.081 440.773 173.772 439.17C179.507 437.796 185.233 436.424 190.835 434.649C189.385 430.872 185.857 431.782 182.233 432.718C180.479 433.171 178.703 433.63 177.128 433.566C171.211 433.328 164.364 431.381 158.729 429.563C145.937 425.434 137.233 415.141 135.256 401.868C135.073 400.645 135.209 398.905 135.35 397.107C135.543 394.626 135.745 392.036 135.131 390.543C134.431 388.84 132.835 387.75 131.231 386.654C130.544 386.185 129.856 385.715 129.236 385.195C123.909 380.73 119.191 374.601 116.317 368.257C113.437 361.899 113.236 354.757 114.91 348.047C115.045 347.504 115.172 347.03 115.285 346.605C115.945 344.136 116.161 343.328 115.049 340.346C114.347 338.464 113.438 336.678 112.527 334.887C111.481 332.83 110.431 330.767 109.687 328.546C107.408 321.739 106.165 314.401 106.289 307.213C106.382 301.897 107.819 298.514 109.402 294.788C110.22 292.862 111.076 290.845 111.806 288.422C112.818 285.065 112.398 280.94 111.981 276.834C111.701 274.077 111.421 271.328 111.577 268.827C112.071 260.859 114.111 254.457 117.632 247.365C123.042 236.468 131.609 224.787 142.761 219.073C143.776 218.552 145.094 218.257 146.412 217.962C147.954 217.616 149.498 217.271 150.56 216.562C152.509 215.263 153.028 213.473 153.642 211.354C153.8 210.811 153.963 210.247 154.158 209.664C156.444 202.845 159.298 197.321 164.241 192.107C180.273 175.2 208.365 169.212 230.894 170.639C232.346 170.731 233.773 171.037 235.183 171.339C237.704 171.879 240.172 172.407 242.632 171.686C244.079 171.261 245.574 170.245 247.078 169.224C248.334 168.37 249.596 167.513 250.842 166.991C254.309 165.541 257.782 164.692 261.512 164.321C268.878 163.587 274.869 164.363 281.658 166.85C283.67 167.588 285.614 168.378 287.579 169.177L287.581 169.178C288.119 169.397 288.659 169.616 289.202 169.835C292.249 171.066 292.835 170.909 294.615 170.433C295.165 170.286 295.829 170.108 296.714 169.932C304.19 168.443 308.485 169.545 315.109 172.735C315.755 173.046 316.538 173.328 317.346 173.618H317.347C318.747 174.122 320.222 174.652 321.184 175.406C322.159 176.172 322.872 177.647 323.584 179.119C324.44 180.889 325.294 182.655 326.6 183.177C327.452 183.519 329.445 182.835 331.217 182.228C332.206 181.889 333.126 181.574 333.739 181.474C335.746 181.147 337.725 181.229 339.709 181.311C340.709 181.352 341.71 181.394 342.717 181.383C348.034 181.325 353.655 181.523 358.51 184.037C361.554 185.613 365.114 188.407 368.038 190.702C368.627 191.164 369.19 191.606 369.717 192.013C371.402 193.314 372.843 195.063 374.29 196.821C376.586 199.609 378.9 202.419 382.237 203.5C383.343 203.858 384.495 203.842 385.653 203.826C386.725 203.812 387.802 203.797 388.848 204.08C391.684 204.846 394.407 206.9 396.704 208.714C398.353 210.017 399.896 212.039 401.427 214.046C403.564 216.846 405.676 219.615 408.021 220.354C409.352 220.773 411.048 220.768 412.795 220.763C414.574 220.757 416.405 220.752 417.955 221.194C421.812 222.294 425.009 223.889 427.868 226.807C433.322 232.374 434.862 240.604 435.096 248.153C435.115 248.782 435.009 249.764 434.889 250.875C434.62 253.359 434.281 256.483 435.124 257.731C435.696 258.579 437.107 259.237 438.555 259.912C439.845 260.513 441.163 261.127 441.945 261.901C447.136 267.041 449.481 275.607 450.006 282.649C450.453 288.634 449.416 293.303 448.267 298.474C447.874 300.245 447.468 302.074 447.104 304.035C446.82 305.564 446.51 306.292 446.35 306.667C446.263 306.871 446.221 306.97 446.251 307.037C446.28 307.101 446.375 307.135 446.562 307.201C446.947 307.338 447.723 307.613 449.108 308.58C451.885 310.518 453.803 311.874 455.603 314.916C459.368 321.277 460.315 328.776 459.693 336.025C459.233 341.388 457.433 345.94 455.614 350.542C454.365 353.702 453.107 356.885 452.267 360.369C459.931 360.369 468.071 362.002 475.805 363.553C477.663 363.926 479.497 364.294 481.296 364.633C483.829 365.112 485.941 366.267 488.099 367.447H488.1H488.101C488.86 367.863 489.625 368.281 490.416 368.674C492.067 369.494 493.454 369.858 494.872 370.23C495.709 370.45 496.556 370.672 497.474 370.993L497.644 371.052C500.454 372.032 501.645 372.448 502.596 372.134C503.296 371.903 503.866 371.278 504.854 370.191C505.296 369.707 505.82 369.131 506.477 368.457C523.082 351.423 546.719 341.139 570.555 341.474C583.85 341.659 596.711 343.414 609.14 348.2L609.824 348.463C614.794 350.373 620.22 352.458 624.589 355.431C629.797 358.977 630.644 358.994 637.331 359.133L637.67 359.14C663.015 359.666 687.609 373.279 706.054 389.778C707.431 380.528 720.214 374.373 729.457 369.923C731.272 369.049 732.951 368.241 734.38 367.488C734.938 367.194 735.488 366.926 736.022 366.666C738.335 365.539 740.361 364.553 741.55 362.167C742.349 360.564 742.654 357.973 742.952 355.449V355.448C743.164 353.645 743.373 351.877 743.754 350.528C745.434 344.583 747.376 337.309 747.224 331.039C747.004 321.836 745.816 312.655 744.627 303.468C743.47 294.535 742.314 285.596 742.045 276.626C742.012 275.511 741.956 274.363 741.898 273.198C741.722 269.59 741.538 265.825 741.997 262.405C742.123 261.463 742.328 260.613 742.521 259.813C743.075 257.512 743.532 255.615 741.758 253.112C739.891 250.479 737.376 248.658 734.867 246.84C731.272 244.237 727.687 241.641 726.029 236.676C721.493 223.088 729.286 209.193 739.926 201.111C742.191 199.391 744.438 198.172 746.617 196.989C750.333 194.973 753.855 193.061 756.95 188.95C758.589 186.771 760.135 184.444 761.687 182.107C764.323 178.14 766.979 174.142 770.151 170.78C771.682 169.158 773.163 167.336 774.66 165.495H774.661V165.494C777.298 162.252 779.983 158.95 783.073 156.573C788.04 152.751 795.333 150.168 801.264 148.352C815.503 143.992 832.987 145.033 843.006 157.21C853.219 169.625 838.173 187.18 829.641 195.843C827.411 198.108 825.386 200.563 823.36 203.02C821.625 205.124 819.888 207.23 818.021 209.219C816.128 211.235 814.007 213.048 811.917 214.834H811.916C809.591 216.822 807.303 218.776 805.412 220.942C804.867 221.565 804.311 222.197 803.748 222.837H803.747C800.41 226.627 796.835 230.687 794.137 234.843C793.626 235.632 793.052 236.443 792.463 237.275C790.755 239.69 788.928 242.273 788.191 244.93C787.304 248.13 787.431 248.185 788.109 248.474C788.519 248.648 789.13 248.909 789.84 250.003C790.212 250.577 790.537 251.047 790.823 251.46C792.014 253.183 792.537 253.94 793.064 257.274C793.697 261.292 794.598 264.233 796.769 267.666C797.502 268.826 798.248 269.972 798.992 271.115L798.993 271.116L798.995 271.12L798.999 271.126L799.003 271.133C801.881 275.554 804.727 279.927 806.729 284.89C809.39 291.49 811.434 298.171 813.499 304.924L813.5 304.925V304.926V304.927L813.501 304.928V304.929C814.037 306.683 814.575 308.441 815.125 310.203C815.422 311.154 815.691 312.144 815.963 313.145L815.964 313.148L815.965 313.152L815.966 313.156C816.647 315.664 817.347 318.24 818.547 320.435C820.893 324.727 821.259 324.447 824.644 321.849L824.823 321.712C827.492 319.666 830.168 317.591 832.855 315.508L832.862 315.503C840.852 309.309 848.938 303.039 857.21 297.243C863.543 292.805 870.122 288.459 876.805 284.571C877.537 284.145 878.403 283.667 879.35 283.143C884.345 280.382 891.615 276.363 893.546 272.2C894.791 269.513 894.734 266.917 894.678 264.373C894.598 260.697 894.519 257.13 898.375 253.556C902.622 249.617 909.547 247.433 915.081 246.476C920.858 245.478 927.08 246.27 933.087 247.033C935.215 247.304 937.316 247.571 939.36 247.754C947.26 248.46 954.985 247.691 962.733 246.075C965.449 245.508 968.74 244.353 972.29 243.106H972.291C984.239 238.91 999.137 233.679 1005.06 246.357C1007.69 251.97 1006.88 258.056 1006.1 263.962C1005.88 265.628 1005.66 267.28 1005.52 268.903C1004.97 275.331 1003.08 282.156 999.079 287.444C995.267 292.475 990.01 293.536 984.356 294.677H984.354C983.219 294.906 982.068 295.138 980.909 295.407C976.737 296.372 972.509 297.024 968.281 297.677C964.214 298.305 960.148 298.932 956.13 299.838C952.093 300.748 948.111 301.191 943.966 301.382C942.263 301.461 940.212 301.185 938.179 300.911C935.809 300.592 933.463 300.276 931.72 300.53C929.934 300.79 929.542 301.555 929.102 302.413C928.786 303.031 928.444 303.696 927.543 304.258C927.084 304.544 926.374 304.573 925.725 304.598C925.138 304.622 924.6 304.643 924.34 304.852C922.975 305.949 922.494 306.918 921.593 308.732L921.579 308.759L921.571 308.776L921.558 308.803L921.419 309.082L921.315 309.288C918.56 314.792 914.683 320.184 910.969 325.351C910.004 326.694 909.05 328.021 908.129 329.331C907.846 329.734 907.559 330.144 907.269 330.56L907.028 330.906C906.801 331.232 906.572 331.561 906.341 331.893C903.019 336.669 899.33 341.973 895.593 346.007C889.567 352.514 883.653 359.446 877.739 366.378L877.736 366.381C874.45 370.233 871.164 374.085 867.859 377.863C863.151 383.245 857.505 388.971 852.034 393.597C851.453 394.089 850.667 394.564 849.85 395.057V395.058C848.297 395.996 846.636 396.999 846.07 398.31C845.179 400.375 846.69 404.236 847.889 407.296C848.344 408.46 848.755 409.509 848.97 410.298C849.864 413.574 850.386 416.902 850.906 420.22C851.468 423.801 852.028 427.371 853.051 430.853C854.938 437.268 855.623 444.264 856.041 450.952C856.336 455.664 856.74 460.301 857.142 464.909V464.915V464.916C858.028 475.088 858.902 485.122 858.569 495.529C858.15 508.572 857.672 521.08 853.143 533.887C849.02 545.543 836.669 558.233 825.182 562.528C818.345 565.085 811.993 567.409 805.113 568.795L803.833 569.053C797.423 570.343 790.735 571.688 784.41 573.495C771.892 577.071 758.698 579.568 745.697 580.793C729.057 582.36 711.698 582.51 695.101 581.934C687.533 581.671 679.754 581.655 672.285 581.678C667.109 581.693 662.135 582.38 657.093 583.077C654.595 583.422 652.079 583.769 649.515 584.038C635.78 585.478 621.652 585.612 607.528 585.745C593.575 585.877 579.626 586.009 566.065 587.401C561.538 587.865 557.013 588.474 552.48 589.084H552.478H552.476C543.505 590.292 534.503 591.503 525.388 591.609C518.506 591.688 511.569 591.468 504.688 591.251C499.285 591.08 493.915 590.91 488.632 590.886C487.805 590.882 487.002 590.894 486.212 590.905C483.359 590.946 480.676 590.984 477.695 590.299C477.115 590.166 476.468 589.922 475.792 589.667L475.791 589.666C474.124 589.037 472.279 588.341 470.837 589.077C469.622 589.697 468.611 591.686 467.742 593.397C467.345 594.179 466.977 594.903 466.633 595.412C464.234 598.96 461.311 601.809 458.225 604.751C445.973 616.428 433.832 620.361 417.753 624.64C410.371 626.605 406.727 627.632 400.529 632.128C395.481 635.79 390.372 638.421 384.561 640.58C373.163 644.814 359.722 641.539 349.01 637.865C347.388 637.309 345.741 636.769 344.081 636.225C340.429 635.027 336.715 633.809 333.072 632.357C329.376 630.885 326.011 628.914 322.651 626.947C319.45 625.072 316.254 623.201 312.782 621.767C313.297 626.556 310.21 629.338 307.234 632.021C305.492 633.59 303.789 635.125 302.867 637.008C302.071 638.634 301.906 640.718 301.736 642.86C301.562 645.059 301.383 647.318 300.511 649.205C298.915 652.661 296.448 655.928 292.6 656.833C287.357 658.064 277.984 652.231 274.301 648.828C273.487 648.076 272.708 646.826 271.907 645.54C270.696 643.597 269.435 641.573 267.927 641.069C265.717 640.328 262.261 642.302 259.3 643.993C257.886 644.801 256.584 645.544 255.586 645.896C240.795 651.117 225.806 653.58 209.925 651.5C195.326 649.588 181.831 644.707 168.185 639.772H168.184C166.789 639.268 165.393 638.763 163.993 638.26C134.44 627.649 108.716 610.181 85.5745 589.148C85.1679 588.778 84.7035 588.421 84.2303 588.057C83.2049 587.269 82.1385 586.449 81.5311 585.4C81.1063 584.666 80.9345 583.385 80.7828 582.254C80.6576 581.32 80.546 580.488 80.3169 580.15C79.0817 578.327 77.3429 578.261 75.2002 578.18H75.1991C74.7262 578.162 74.2336 578.143 73.7223 578.105C64.9853 577.445 58.0448 575.335 51.2727 569.48C40.6139 560.264 36.671 538.777 53.0105 533.07C57.1871 531.61 61.784 531.32 66.1016 532.219C66.821 532.369 68.3308 533.114 69.9865 533.93H69.9868C72.4298 535.135 75.1905 536.496 76.199 536.336C78.0265 536.045 78.2991 534.286 78.5511 532.66C78.6529 532.004 78.7512 531.369 78.9473 530.861C80.6759 526.39 83.1082 522.454 86.0406 518.66C90.9143 512.353 96.8534 506.013 102.948 500.881C108.889 495.875 115.37 493.368 122.334 490.674C123.13 490.366 123.932 490.056 124.741 489.739C130.051 487.659 140.416 484.087 146.04 485.948C153.365 488.372 149.779 496.377 145.164 499.177C141.876 501.172 138.259 502.58 134.631 503.993C130.986 505.412 127.329 506.835 123.982 508.863C118.517 512.175 113.404 516.394 108.375 520.542C106.621 521.99 104.877 523.428 103.132 524.817C100.61 526.824 98.2451 529.049 95.8823 531.272C93.1584 533.834 90.4377 536.394 87.4845 538.612C86.0223 539.71 83.6344 541.631 83.18 542.238C83.1301 542.304 83.1153 542.521 83.0957 542.809C83.0533 543.434 82.9878 544.396 82.4933 544.916C82.3887 545.025 82.2884 545.131 82.192 545.233L81.942 545.497C80.7847 546.722 80.2219 547.318 79.5465 547.503C78.907 547.678 78.1667 547.485 76.7254 547.109C76.2887 546.995 75.7876 546.864 75.2055 546.722C69.5105 545.329 55.9154 542.178 52.0757 549.239C48.6922 555.46 62.1795 561.078 67.1043 563.13L67.4085 563.257C73.0792 565.622 75.1352 567.997 78.4695 571.847C79.144 572.626 79.8707 573.465 80.6903 574.377C84.2029 578.288 89.3504 581.317 94.271 584.212C96.3405 585.43 98.3698 586.624 100.221 587.85C110.423 594.608 121.581 599.884 132.665 605.124L132.668 605.126L132.673 605.128C136.265 606.826 139.849 608.521 143.39 610.261C157.388 617.139 172.429 622.102 187.021 626.916L187.28 627.001C196.138 629.923 206.754 633.059 216.051 633.959C225.419 634.867 234.204 633.34 243.395 631.552C247.07 630.837 249.845 630.289 253.689 628.934C254.318 628.712 255.095 628.559 255.892 628.403C257.262 628.134 258.693 627.853 259.552 627.185C261.038 626.03 261.04 625.039 261.044 623.574C261.045 622.962 261.046 622.267 261.156 621.443C262.504 611.318 268.537 618.883 272.72 624.128C273.603 625.236 274.404 626.241 275.061 626.953C275.66 627.602 276.256 628.282 276.86 628.97L276.862 628.973C279.187 631.622 281.615 634.389 284.651 635.974C289.443 638.474 290.275 637.296 291.846 633.172C292.26 632.085 292.637 630.976 293.012 629.877C295.296 623.174 297.457 616.832 307.002 617.807C305.343 616.387 303.698 615.008 302.071 613.643C295.098 607.794 288.45 602.219 282.362 594.906C277.427 588.979 272.706 582.758 268.004 576.561L268.003 576.56L267.998 576.553C265.644 573.45 263.294 570.353 260.924 567.303C259.018 564.85 257.193 562.092 255.335 559.284C251.515 553.512 247.557 547.53 242.472 543.553C240.083 541.684 232.82 537.377 230.055 537.468C227.965 537.536 225.993 539.294 223.979 541.09C222.006 542.85 219.992 544.647 217.786 544.925C212.863 545.547 210.596 543.828 209.19 539.831C208.414 537.624 209.038 535.24 209.614 533.038C210.121 531.102 210.591 529.307 210.04 527.896C209.884 527.497 209.329 527.061 208.72 526.582C208.048 526.053 207.309 525.473 206.969 524.834C205.995 523.004 205.925 520.597 206.216 518.571C206.385 517.398 206.649 516.494 206.896 515.65V515.649C207.285 514.317 207.631 513.133 207.492 511.271C207.404 510.101 207.175 509.035 206.953 507.998C206.504 505.903 206.081 503.927 206.898 501.453C207.752 498.863 209.79 497.053 211.782 495.285C212.777 494.401 213.76 493.528 214.58 492.573C217.723 488.907 216.857 486.003 215.612 481.83V481.829C215.382 481.06 215.14 480.248 214.907 479.38C213.236 473.145 211.421 466.948 209.604 460.75C207.944 455.083 206.283 449.415 204.733 443.718C201.709 444.675 198.712 445.684 195.718 446.691L195.715 446.692L195.713 446.693H195.712L195.705 446.696C191.313 448.174 186.926 449.65 182.467 450.958C180.663 451.488 178.752 452.004 176.796 452.532C170.925 454.117 164.645 455.812 159.622 458.318C158.676 458.79 158.014 459.049 157.559 459.227C157.05 459.426 156.8 459.524 156.7 459.705C156.602 459.88 156.646 460.134 156.733 460.634C156.816 461.119 156.94 461.836 157.014 462.939C157.134 464.757 157.662 466.71 158.179 468.618C158.482 469.738 158.781 470.843 158.99 471.895C159.245 473.175 159.465 474.948 159.711 476.933V476.934C160.475 483.102 161.494 491.326 164.608 493.225C165.639 493.854 166.93 493.845 168.284 493.835C170.202 493.822 172.245 493.807 173.852 495.607C175.212 497.129 175.53 499.058 175.847 500.974C176.067 502.31 176.287 503.639 176.857 504.819C177.328 505.792 178.038 506.437 178.756 507.088C179.354 507.63 179.957 508.178 180.429 508.924C182.193 511.711 182.371 514.138 182.581 517.013C182.629 517.675 182.679 518.36 182.751 519.079C182.821 519.789 182.839 520.913 182.859 522.195C182.908 525.287 182.972 529.298 183.823 530.627C184.965 532.411 186.904 532.706 188.894 533.009C189.702 533.132 190.518 533.256 191.293 533.482C198.053 535.45 204.28 538.874 210.021 542.866ZM237.161 434.238C235.909 438.156 230.163 442.588 225.553 440.231C219.82 437.301 219.286 425.744 220.858 420.812C223.521 412.453 225.76 423.417 226.23 426.719C226.291 427.146 226.328 427.542 226.363 427.908C226.507 429.441 226.603 430.452 228.152 431.032C228.83 431.286 229.788 431.181 230.799 431.07C231.976 430.941 233.227 430.804 234.197 431.215C235.746 431.873 236.005 432.307 236.751 433.559C236.872 433.762 237.006 433.987 237.161 434.238ZM204.077 409.366C203.816 414.866 212.401 431.814 214.966 419.531C214.759 415.866 212.891 409.398 210.46 406.528C206.983 402.427 204.32 404.292 204.077 409.366ZM226.447 402.734C226.447 397.415 229.683 396.363 233.72 399.807C237.886 403.36 239.247 409.295 239.679 414.198C240.149 419.514 238.935 421.773 233.641 418.357C229.006 415.366 226.687 407.401 226.447 402.734ZM253.975 441.393C246.825 440.853 238.515 454.288 247.301 453.237C250.615 453.025 257.245 450.636 258.214 446.823C258.98 443.804 256.887 441.614 253.975 441.393ZM308.296 387.155C307.894 381.612 316.428 378.717 317.533 384.593C318.574 390.14 306.291 395.841 308.296 387.155ZM173.265 471.409C173.316 464.446 164.809 453.218 161.769 464.57C162.203 468.018 163.641 477.129 168.387 477.908C172.188 478.532 173.241 474.466 173.265 471.409Z" fill="#1A2125"/>
</svg>
