<svg viewBox="0 0 33 31" fill="none" xmlns="http://www.w3.org/2000/svg">
<path d="M0 16.7077C0 14.8261 0.334046 13.0584 1.00213 11.4048C1.67021 9.75121 2.57881 8.31144 3.72793 7.0855C4.87704 5.83104 6.22657 4.84743 7.77654 4.13468C9.35323 3.4219 11.0235 3.06552 12.7872 3.06552C14.7915 3.06552 16.6488 3.53594 18.3591 4.47678C20.0694 5.38911 21.5125 6.61507 22.6883 8.15463C22.9822 8.52527 23.1292 8.99571 23.1292 9.56591C23.1292 10.3642 22.8486 11.0627 22.2875 11.6614C21.7263 12.2316 21.0715 12.5168 20.3233 12.5168C19.6285 12.5168 19.094 12.3029 18.7198 11.8752C18.025 10.9344 17.1565 10.1789 16.1143 9.60868C15.0988 9.03848 13.9898 8.75338 12.7872 8.75338C11.745 8.75338 10.7696 8.9672 9.86096 9.39485C8.95237 9.79398 8.15069 10.3642 7.45587 11.1055C6.78777 11.8182 6.25331 12.6593 5.85247 13.6287C5.47834 14.5695 5.29126 15.5958 5.29126 16.7077C5.29126 17.8197 5.47834 18.8603 5.85247 19.8297C6.25331 20.799 6.78777 21.6543 7.45587 22.3956C8.15069 23.1084 8.95237 23.6786 9.86096 24.1062C10.7696 24.5054 11.745 24.705 12.7872 24.705C13.8027 24.705 14.738 24.5196 15.5932 24.149C16.4751 23.7498 17.2634 23.2081 17.9582 22.5239C18.2789 22.0962 18.4259 21.469 18.3992 20.6422C17.6242 20.6422 16.9694 20.3713 16.435 19.8297C15.9272 19.2594 15.6734 18.5609 15.6734 17.7341C15.6734 16.9644 15.9272 16.3086 16.435 15.7669C16.9694 15.2252 17.6242 14.9544 18.3992 14.9544H21.0448C21.8198 14.9544 22.4612 15.2252 22.9689 15.7669C23.4767 16.3086 23.7305 16.9644 23.7305 17.7341V20.6422C23.7305 22.2673 23.5434 23.479 23.1693 24.2773C22.8219 25.0756 22.4478 25.6885 22.047 26.1162C20.8711 27.4562 19.4815 28.4968 17.878 29.2381C16.3013 29.9794 14.6044 30.35 12.7872 30.35C11.0235 30.35 9.35323 29.9936 7.77654 29.2809C6.22657 28.5681 4.87704 27.5988 3.72793 26.3728C2.57881 25.1184 1.67021 23.6643 1.00213 22.0107C0.334046 20.3571 0 18.5894 0 16.7077Z" fill="#444341"/>
<path d="M26.6504 19.7433V11.9226C26.6504 11.0275 26.8936 10.2779 27.3802 9.67373C27.8862 9.06954 28.4896 8.76749 29.1902 8.76749C29.8908 8.76749 30.5039 9.0695 31.0294 9.67373C31.5743 10.2555 31.8663 10.9268 31.9052 11.6876C31.9442 13.4778 31.9637 16.1742 31.9637 19.7769V27.7319C31.9637 28.7612 31.7496 29.4549 31.3214 29.8129C30.8932 30.1486 30.0661 30.3276 28.84 30.35H28.8109C27.3707 30.35 26.6506 29.5333 26.6506 27.8997V26.2215C26.6704 25.483 26.6797 24.9236 26.6797 24.5432C26.6797 24.0061 26.6712 23.2117 26.6506 22.16V19.7433H26.6504Z" fill="#935F46"/>
<path d="M31.6572 6.04178C31.0734 6.66832 30.3046 6.98157 29.351 6.98157C28.3973 6.98157 27.6091 6.65713 26.9863 6.00818C26.383 5.33689 26.0813 4.48657 26.0813 3.45723C26.0813 2.6293 26.4024 1.84608 27.0447 1.10766C27.6869 0.369208 28.3778 0 29.1174 0H29.2925C30.1683 0.0672265 30.9274 0.391605 31.5696 0.97339C32.2119 1.55521 32.533 2.39433 32.533 3.4908C32.533 4.54252 32.241 5.39284 31.6572 6.04178H31.6572Z" fill="#935F46"/>
</svg>
