<svg  viewBox="0 0 50 50" xmlns="http://www.w3.org/2000/svg">
<path d="M5.35718 18.0786L24.3822 27.9732C24.573 28.0724 24.7849 28.1243 25 28.1243C25.2151 28.1243 25.4271 28.0724 25.6179 27.9732L44.6429 18.0804V35.2679C44.643 36.7503 44.0758 38.1765 43.0578 39.254C42.0397 40.3315 40.6479 40.9786 39.1679 41.0625L38.8393 41.0714H11.1607C9.67836 41.0715 8.25213 40.5044 7.17462 39.4863C6.09712 38.4682 5.45003 37.0764 5.36611 35.5964L5.35718 35.2679V18.0786ZM11.1607 8.92857H38.8393C40.3217 8.92848 41.7479 9.49563 42.8254 10.5137C43.903 11.5318 44.55 12.9236 44.634 14.4036L44.6429 14.7321V15.0607L25 25.275L5.35718 15.0607V14.7321C5.35708 13.2498 5.92424 11.8235 6.94231 10.746C7.96037 9.66851 9.35217 9.02143 10.8322 8.9375L11.1607 8.92857H38.8393H11.1607Z" fill="#F5F3E6"/>
</svg>
