<svg width="30" height="30" viewBox="0 0 30 30" fill="none" xmlns="http://www.w3.org/2000/svg">
<path d="M6.6965 5.35715H23.3036C24.1931 5.35709 25.0488 5.69738 25.6953 6.30822C26.3418 6.91906 26.7301 7.75414 26.7804 8.64215L26.7858 8.83929V21.1607C26.7858 22.0502 26.4455 22.9059 25.8347 23.5524C25.2239 24.1989 24.3888 24.5872 23.5008 24.6375L23.3036 24.6429H6.6965C5.80706 24.6429 4.95132 24.3026 4.30482 23.6918C3.65832 23.0809 3.27007 22.2459 3.21971 21.3579L3.21436 21.1607V8.83929C3.2143 7.94986 3.55459 7.09412 4.16543 6.44761C4.77627 5.80111 5.61135 5.41286 6.49936 5.3625L6.6965 5.35715H23.3036H6.6965ZM25.1786 11.6839L15.3708 16.7839C15.2758 16.8333 15.1719 16.8632 15.0652 16.8718C14.9584 16.8805 14.8511 16.8677 14.7494 16.8343L14.6294 16.7839L4.8215 11.6839V21.1607C4.82152 21.6313 4.99847 22.0846 5.31723 22.4308C5.63599 22.7769 6.07325 22.9906 6.54221 23.0293L6.6965 23.0357H23.3036C23.7744 23.0357 24.2279 22.8586 24.574 22.5396C24.9202 22.2206 25.1337 21.7831 25.1722 21.3139L25.1786 21.1607V11.6839ZM23.3036 6.96429H6.6965C6.22594 6.96431 5.77259 7.14126 5.42644 7.46002C5.08029 7.77878 4.86665 8.21604 4.82793 8.685L4.8215 8.83929V9.87215L15.0001 15.165L25.1786 9.87215V8.83929C25.1786 8.36856 25.0015 7.91507 24.6825 7.56889C24.3635 7.22271 23.926 7.00918 23.4569 6.97072L23.3036 6.96429Z" fill="#A86F49"/>
</svg>
