<svg width="30" height="30" viewBox="0 0 30 30" fill="none" xmlns="http://www.w3.org/2000/svg">
<path d="M8.81988 3.02251L10.2786 2.58376C11.0777 2.34279 11.9372 2.40079 12.6967 2.74696C13.4562 3.09312 14.0638 3.70379 14.4061 4.46501L15.5336 6.97251C15.828 7.62726 15.9099 8.35773 15.768 9.06143C15.6261 9.76513 15.2675 10.4067 14.7424 10.8963L12.8749 12.6375C12.8203 12.6884 12.7857 12.7571 12.7774 12.8313C12.7224 13.3275 13.0586 14.2938 13.8336 15.6375C14.3974 16.6138 14.9086 17.3 15.3424 17.6838C15.6449 17.9525 15.8111 18.01 15.8824 17.99L18.3949 17.2213C19.081 17.0114 19.8156 17.0215 20.4957 17.2501C21.1759 17.4788 21.7674 17.9145 22.1874 18.4963L23.7886 20.7163C24.2756 21.3914 24.501 22.2202 24.4231 23.049C24.3451 23.8777 23.9691 24.65 23.3649 25.2225L22.2574 26.2725C21.6696 26.8291 20.9477 27.2241 20.1619 27.4188C19.3761 27.6135 18.5533 27.6015 17.7736 27.3838C14.3311 26.4225 11.2449 23.5175 8.47988 18.7288C5.71113 13.9338 4.73988 9.80376 5.63488 6.33751C5.83635 5.55793 6.23524 4.84338 6.7931 4.26275C7.35095 3.68213 8.04898 3.25499 8.81988 3.02251ZM9.36113 4.81876C8.89872 4.95807 8.47998 5.21412 8.14523 5.56222C7.81048 5.91032 7.57101 6.33875 7.44988 6.80626C6.69738 9.72126 7.55863 13.3825 10.1036 17.7913C12.6449 22.1938 15.3811 24.7688 18.2786 25.5788C18.7463 25.709 19.2397 25.716 19.7109 25.599C20.1821 25.482 20.6149 25.2451 20.9674 24.9113L22.0761 23.8613C22.3509 23.601 22.5219 23.2498 22.5573 22.873C22.5927 22.4962 22.4901 22.1194 22.2686 21.8125L20.6686 19.5938C20.4777 19.329 20.2087 19.1307 19.8993 19.0267C19.5899 18.9227 19.2557 18.9181 18.9436 19.0138L16.4249 19.785C14.9624 20.22 13.6349 19.0438 12.2099 16.575C11.2499 14.9125 10.8024 13.625 10.9136 12.6238C10.9724 12.1038 11.2136 11.6238 11.5961 11.2663L13.4636 9.52501C13.7024 9.30252 13.8655 9.01086 13.9301 8.69095C13.9947 8.37103 13.9574 8.03893 13.8236 7.74126L12.6961 5.23376C12.5405 4.88802 12.2645 4.61065 11.9196 4.45334C11.5746 4.29604 11.1842 4.26953 10.8211 4.37876L9.36113 4.81876Z" fill="#A86F49"/>
</svg>
